{"title":"Le lion volatil (Agnes Varda, 2003)","uid":9016094,"size":120501219,"categoryP":"video","categoryS":"movie_clips","magnet":"?xt=urn:btih:5ba9af6af6f63ee8cc35664f33455304e213c762&amp;dn=Le+lion+volatil+%28Agnes+Varda%2C+2003%29&amp;tr=udp%3A%2F%2Ftracker.openbittorrent.com%3A80&amp;tr=udp%3A%2F%2Fopen.demonii.com%3A1337&amp;tr=udp%3A%2F%2Ftracker.coppersurfer.tk%3A6969&amp;tr=udp%3A%2F%2Fexodus.desync.com%3A6969","seeders":0,"leechers":1,"uploader":"moonflux","files":4,"time":1381195777,"description":" Le Lion Volatil (2003) is a short adventure between Clarisse (Julie Depardieu), card-reader apprentice, and Lazare (David Deciron), a worker at the catacombs, around the statue of a lion. \n\nGeneral\nComplete name                            : Agnes Varda - Le lion volatil.avi\nFormat                                   : AVI\nFormat/Info                              : Audio Video Interleave\nFile size                                : 115 MiB\nDuration                                 : 10mn 56s\nOverall bit rate mode                    : Variable\nOverall bit rate                         : 1 468 Kbps\nWriting application                      : VirtualDubMod 1.5.10.2 (build 2540/release)\nWriting library                          : VirtualDubMod build 2540/release\n\nVideo\nID                                       : 0\nFormat                                   : MPEG-4 Visual\nFormat profile                           : Advanced Simple@L5\nFormat settings, BVOP                    : 2\nFormat settings, QPel                    : No\nFormat settings, GMC                     : No warppoints\nFormat settings, Matrix                  : Default (MPEG)\nCodec ID                                 : XVID\nCodec ID/Hint                            : XviD\nDuration                                 : 10mn 56s\nBit rate                                 : 1 327 Kbps\nWidth                                    : 624 pixels\nHeight                                   : 336 pixels\nDisplay aspect ratio                     : 1.85:1\nFrame rate                               : 25.000 fps\nColor space                              : YUV\nChroma subsampling                       : 4:2:0\nBit depth                                : 8 bits\nScan type                                : Progressive\nCompression mode                         : Lossy\nBits/(Pixel*Frame)                       : 0.253\nStream size                              : 104 MiB (90%)\nWriting library                          : XviD 1.1.0 (UTC 2005-11-22)\n\nAudio\nID                                       : 1\nFormat                                   : MPEG Audio\nFormat version                           : Version 1\nFormat profile                           : Layer 3\nMode                                     : Joint stereo\nMode extension                           : MS Stereo\nCodec ID                                 : 55\nCodec ID/Hint                            : MP3\nDuration                                 : 10mn 56s\nBit rate mode                            : Variable\nBit rate                                 : 128 Kbps\nMinimum bit rate                         : 32.0 Kbps\nChannel(s)                               : 2 channels\nSampling rate                            : 48.0 KHz\nCompression mode                         : Lossy\nStream size                              : 10.0 MiB (9%)\nAlignment                                : Aligned on interleaves\nInterleave, duration                     : 24 ms (0.60 video frame)\nInterleave, preload duration             : 144 ms\nWriting library                          : LAME3.97b\nEncoding settings                        : -m j -V 4 -q 3 -lowpass 17.5 --vbr-new -b 32\n\n","torrent":{"xt":"urn:btih:5ba9af6af6f63ee8cc35664f33455304e213c762","amp;dn":"Le+lion+volatil+%28Agnes+Varda%2C+2003%29","amp;tr":["udp%3A%2F%2Ftracker.openbittorrent.com%3A80","udp%3A%2F%2Fopen.demonii.com%3A1337","udp%3A%2F%2Ftracker.coppersurfer.tk%3A6969","udp%3A%2F%2Fexodus.desync.com%3A6969"],"infoHash":"5ba9af6af6f63ee8cc35664f33455304e213c762","infoHashBuffer":{"type":"Buffer","data":[91,169,175,106,246,246,62,232,204,53,102,79,51,69,83,4,226,19,199,98]},"announce":[],"urlList":[]}}